<svg width="17" height="16" viewBox="0 0 17 16" fill="none" xmlns="http://www.w3.org/2000/svg">
<path fill-rule="evenodd" clip-rule="evenodd" d="M8.5 5.5C8.77614 5.5 9 5.72386 9 6V7.83333C9 8.10948 8.77614 8.33333 8.5 8.33333C8.22386 8.33333 8 8.10948 8 7.83333V6C8 5.72386 8.22386 5.5 8.5 5.5ZM8.5 9.5C8.77614 9.5 9 9.72386 9 10V10.0067C9 10.2828 8.77614 10.5067 8.5 10.5067C8.22386 10.5067 8 10.2828 8 10.0067V10C8 9.72386 8.22386 9.5 8.5 9.5Z" fill="#FE5500"/>
<path fill-rule="evenodd" clip-rule="evenodd" d="M7.56203 1.73256C7.84414 1.56624 8.16565 1.47852 8.49313 1.47852C8.82062 1.47852 9.14213 1.56624 9.42424 1.73256C9.70481 1.89797 9.93621 2.13513 10.0947 2.41959L14.8257 10.5823C14.8375 10.6026 14.8478 10.6237 14.8566 10.6455C14.9688 10.9228 15.0114 11.2233 14.9808 11.5209C14.9502 11.8184 14.8472 12.104 14.6808 12.3526C14.5145 12.6012 14.2899 12.8053 14.0265 12.9471C13.7631 13.089 13.4691 13.1642 13.17 13.1663L13.1665 13.1664V13.1664H3.83313C3.82088 13.1664 3.80872 13.1659 3.79668 13.165C3.7761 13.1665 3.7552 13.1668 3.73406 13.1657C3.442 13.1506 3.15779 13.0659 2.90514 12.9186C2.65249 12.7714 2.43874 12.5658 2.28174 12.3191C2.12473 12.0723 2.02903 11.7916 2.00261 11.5004C1.9762 11.2091 2.01984 10.9158 2.12989 10.6449C2.13864 10.6233 2.14888 10.6024 2.16054 10.5823L6.89158 2.41959C7.05006 2.13513 7.28146 1.89797 7.56203 1.73256ZM3.79633 12.1677C3.80848 12.1668 3.82076 12.1664 3.83313 12.1664H13.1645C13.3 12.1651 13.433 12.131 13.5523 12.0667C13.672 12.0023 13.7741 11.9095 13.8497 11.7965C13.9253 11.6835 13.9721 11.5537 13.9861 11.4184C13.9989 11.2935 13.9834 11.1675 13.9408 11.0496L9.22721 2.91708L9.2223 2.90841C9.15024 2.77816 9.0446 2.66959 8.91637 2.59399C8.78813 2.51839 8.64199 2.47852 8.49313 2.47852C8.34428 2.47852 8.19814 2.51839 8.06991 2.59399C7.94167 2.66959 7.83603 2.77816 7.76397 2.90841L7.75906 2.91708L3.0453 11.05C3.00347 11.165 2.98745 11.2879 2.99852 11.4101C3.01053 11.5424 3.05403 11.67 3.1254 11.7822C3.19677 11.8943 3.29392 11.9878 3.40876 12.0547C3.5236 12.1217 3.65279 12.1602 3.78554 12.167C3.78915 12.1672 3.79275 12.1674 3.79633 12.1677Z" fill="#FE5500"/>
</svg>
