<svg fill="none" height="102" viewBox="0 0 102 102" width="102" xmlns="http://www.w3.org/2000/svg"><g fill="#1caec9"><path clip-rule="evenodd" d="m51.0721 0c-4.1966 0-8.3734 2.46377-16.7269 7.39132-1.8675 1.10162-3.9438 2.32639-6.2758 3.67428-2.3019 1.3321-4.3757 2.5085-6.2437 3.5682-8.4723 4.8063-12.71297 7.2119-14.81498 10.8525-2.10654 3.6484-2.06515 8.537-1.98229 18.3247.01815 2.1436.03829 4.5221.03829 7.1741s-.02014 5.0305-.03829 7.1741c-.08286 9.7877-.12425 14.6763 1.98229 18.3247 2.10201 3.6406 6.34268 6.0463 14.81498 10.8525 1.868 1.0597 3.9418 2.2361 6.2437 3.5682 2.2913 1.326 4.3363 2.5327 6.1795 3.6203 8.4116 4.9636 12.6174 7.4451 16.8232 7.4451s8.4116-2.4815 16.8232-7.4451c1.8431-1.0876 3.8882-2.2943 6.1795-3.6203 2.3019-1.3321 4.3756-2.5085 6.2437-3.5682 8.4722-4.8062 12.7129-7.2119 14.8149-10.8525 2.1066-3.6484 2.0652-8.537 1.9823-18.3247-.0181-2.1436-.0383-4.5221-.0383-7.1741 0-2.6519.0202-5.0305.0383-7.174.0192-2.2628.0361-4.2638.0248-6.0481-2.5205 2.9591-6.2698 4.8352-10.4562 4.8352-1.0867 0-2.1439-.1264-3.1578-.3653.0032 1.1439-.0075 2.41-.0193 3.82-.0127 1.5096-.0268 3.1843-.0268 5.051.0027 1.8667.0192 3.5414.0341 5.051.0681 6.9142.1021 10.3663-1.3833 12.9423-1.4812 2.5687-4.473 4.2662-10.4481 7.6565-1.3188.7483-2.783 1.5791-4.4084 2.5199-1.6225.9392-3.0699 1.7936-4.3738 2.5633-5.9234 3.4967-8.8851 5.2451-11.8468 5.2451s-5.9234-1.7484-11.8468-5.2451c-1.3039-.7697-2.7513-1.6241-4.3738-2.5633-1.6266-.9415-3.0918-1.7728-4.4115-2.5216-5.9736-3.3893-8.9652-5.0867-10.449-7.6552-1.4887-2.5768-1.4597-6.0304-1.4017-12.9487.0127-1.5079.0267-3.1804.0267-5.0442 0-1.8639-.014-3.5363-.0267-5.0442-.058-6.9183-.087-10.3719 1.4017-12.9487 1.4838-2.5685 4.4754-4.2659 10.449-7.6553 1.3197-.7487 2.7849-1.58 4.4115-2.5215 1.5748-.9116 2.9849-1.7429 4.2591-2.4941l.0002-.0001c6.0022-3.5385 8.9892-5.2994 11.9761-5.2994 2.9704 0 5.9208 1.7415 11.8495 5.2408l.0002.0001c1.2986.7665 2.7401 1.6173 4.3561 2.5527 1.6227.9408 3.0845 1.7716 4.4011 2.5199.521.2961 1.0193.5793 1.4958.8513.9131-4.9482 4.4655-8.9687 9.1391-10.5401-.6366-.3624-1.3003-.7389-1.9922-1.1315-1.8681-1.0597-3.9418-2.2361-6.2437-3.5682-2.2658-1.31267-4.2909-2.50856-6.1183-3.58766-8.4422-4.98529-12.6633-7.47794-16.8844-7.47794z" fill-rule="evenodd"/><path d="m86.6841 39.1483c5.6881 0 10.2993-4.6213 10.2993-10.3219 0-5.7007-4.6112-10.322-10.2993-10.322s-10.2993 4.6213-10.2993 10.322c0 5.7006 4.6112 10.3219 10.2993 10.3219z"/></g></svg>