<svg fill="none" height="280" viewBox="0 0 359 280" width="359" xmlns="http://www.w3.org/2000/svg" xmlns:xlink="http://www.w3.org/1999/xlink"><filter id="a" color-interpolation-filters="sRGB" filterUnits="userSpaceOnUse" height="59.119" width="184.211" x=".929408" y="30.8592"><feFlood flood-opacity="0" result="BackgroundImageFix"/><feColorMatrix in="SourceAlpha" result="hardAlpha" type="matrix" values="0 0 0 0 0 0 0 0 0 0 0 0 0 0 0 0 0 0 127 0"/><feOffset/><feGaussianBlur stdDeviation="2.57039"/><feComposite in2="hardAlpha" operator="out"/><feColorMatrix type="matrix" values="0 0 0 0 0.586441 0 0 0 0 0.700753 0 0 0 0 0.721892 0 0 0 0.44 0"/><feBlend in2="BackgroundImageFix" mode="normal" result="effect1_dropShadow_969_11445"/><feBlend in="SourceGraphic" in2="effect1_dropShadow_969_11445" mode="normal" result="shape"/></filter><filter id="b" color-interpolation-filters="sRGB" filterUnits="userSpaceOnUse" height="58.803" width="183.227" x="50.8867" y="100.887"><feFlood flood-opacity="0" result="BackgroundImageFix"/><feColorMatrix in="SourceAlpha" result="hardAlpha" type="matrix" values="0 0 0 0 0 0 0 0 0 0 0 0 0 0 0 0 0 0 127 0"/><feOffset/><feGaussianBlur stdDeviation="2.55665"/><feComposite in2="hardAlpha" operator="out"/><feColorMatrix type="matrix" values="0 0 0 0 0.586441 0 0 0 0 0.700753 0 0 0 0 0.721892 0 0 0 0.44 0"/><feBlend in2="BackgroundImageFix" mode="normal" result="effect1_dropShadow_969_11445"/><feBlend in="SourceGraphic" in2="effect1_dropShadow_969_11445" mode="normal" result="shape"/></filter><linearGradient id="c" gradientUnits="userSpaceOnUse" x1="93.1937" x2="93.1937" y1="43.0129" y2="83.9804"><stop offset="0" stop-color="#baecf5"/><stop offset="1" stop-color="#def7fc" stop-opacity="0"/></linearGradient><linearGradient id="d" gradientUnits="userSpaceOnUse" x1="142.658" x2="142.658" y1="156.507" y2="112.966"><stop offset="0" stop-color="#5761bc" stop-opacity="0"/><stop offset="1" stop-color="#5761bc" stop-opacity=".53"/></linearGradient><clipPath id="e"><path d="m237.872 76.7754h27.9184v27.9184h-27.9184z"/></clipPath><clipPath id="f"><rect height="48.8374" rx="4.31572" width="173.93" x="6.07019" y="36"/></clipPath><clipPath id="g"><rect height="48.5764" rx="4.29265" width="173" x="56" y="106"/></clipPath><g fill="#f6f6f7"><path d="m347.218 194.678 2.082 37.308s-88.065-78.228-99.036-101.116 9.681-79.5072 9.681-79.5072l45.821 23.4908z"/><path d="m212.187 35.7021-13.553 1.2047s-7.099 14.4559 14.844 15.6605z"/><path d="m212.187 57.9883-13.553 1.2046s-7.099 14.4559 14.844 15.6605z"/><path d="m212.187 82.0815-13.553 1.2047s-7.099 14.4559 14.844 15.6605z"/><path d="m216.059 106.174-13.553 1.205s-7.099 14.456 14.844 15.66z"/></g><path d="m205.589 41.5098h1.028v-26.2924c0-1.9984.422-3.9772 1.241-5.82347.82-1.84625 2.021-3.5238 3.535-4.93686 1.514-1.41307 3.311-2.53397 5.289-3.29871 1.979-.764746 4.099-1.15835847 6.24-1.15836h59.685c2.141-.00000408 4.261.393602 6.24 1.15834 1.978.76474 3.775 1.88564 5.289 3.2987 1.514 1.41305 2.715 3.09059 3.535 4.93685.819 1.84621 1.241 3.82501 1.241 5.82341v144.2427c0 1.998-.422 3.977-1.241 5.823-.82 1.846-2.021 3.524-3.535 4.937s-3.311 2.534-5.289 3.299c-1.979.764-4.099 1.158-6.24 1.158h-59.685c-4.324 0-8.471-1.603-11.529-4.457s-4.776-6.724-4.776-10.76v-99.2348h-1.028z" fill="#3f3d56"/><path d="m222.264 3.95924h7.791c-.358.8198-.495 1.70926-.398 2.59001s.424 1.72577.953 2.46062c.529.73484 1.244 1.33693 2.081 1.75333.837.4163 1.771.6341 2.72.6342h34.193c.948-.0001 1.883-.2179 2.72-.6342.837-.4164 1.552-1.01848 2.081-1.75333s.856-1.57987.953-2.46062c.097-.88076-.04-1.77022-.398-2.59002h7.277c3.229 0 6.326 1.19728 8.609 3.32847 2.284 2.13119 3.567 5.0217 3.567 8.0357v144.0306c0 1.492-.315 2.97-.927 4.349s-1.509 2.631-2.64 3.687c-1.13 1.055-2.472 1.892-3.95 2.463-1.477.571-3.06.865-4.659.865h-59.973c-1.599 0-3.182-.294-4.66-.865-1.477-.571-2.819-1.408-3.95-2.463-1.13-1.056-2.027-2.308-2.639-3.687s-.927-2.857-.927-4.349v-144.0306c0-1.4924.315-2.9701.927-4.3489.612-1.37876 1.509-2.63153 2.639-3.68679 1.131-1.05526 2.473-1.89233 3.95-2.46343 1.478-.5711 3.061-.86504 4.66-.86504z" fill="#fff"/><g clip-path="url(#e)" fill="#1caec9"><path clip-rule="evenodd" d="m251.851 76.7759c-1.148 0-2.291.6743-4.578 2.0231-.511.3015-1.079.6367-1.718 1.0056-.63.3646-1.197.6866-1.709.9767-2.319 1.3155-3.479 1.974-4.055 2.9704-.576.9986-.565 2.3367-.542 5.0157.005.5867.01 1.2377.01 1.9636s-.005 1.3769-.01 1.9636c-.023 2.679-.034 4.0171.542 5.0157.576.9964 1.736 1.6549 4.055 2.9707.512.29 1.079.612 1.709.976.627.363 1.187.694 1.692.991 2.302 1.359 3.453 2.038 4.604 2.038 1.152 0 2.303-.679 4.605-2.038.505-.297 1.064-.628 1.691-.991.631-.364 1.198-.686 1.709-.976 2.319-1.3158 3.48-1.9743 4.055-2.9707.577-.9986.566-2.3367.543-5.0157-.005-.5867-.011-1.2377-.011-1.9636s.006-1.3769.011-1.9636c.005-.6194.01-1.1671.007-1.6555-.69.81-1.716 1.3235-2.862 1.3235-.298 0-.587-.0346-.865-.1.001.3131-.002.6596-.005 1.0456-.003.4132-.007.8716-.007 1.3825.001.5109.005.9693.009 1.3825.019 1.8925.028 2.8374-.378 3.5424-.406.7031-1.225 1.1677-2.86 2.0957-.361.2048-.762.4322-1.207.6897-.444.2571-.84.4909-1.197.7016-1.621.9576-2.432 1.4356-3.243 1.4356-.81 0-1.621-.478-3.242-1.4356-.357-.2107-.753-.4445-1.197-.7016-.445-.2577-.847-.4852-1.208-.6902-1.635-.9277-2.454-1.3923-2.86-2.0953-.407-.7053-.399-1.6506-.383-3.5442.003-.4127.007-.8705.007-1.3806 0-.5102-.004-.9679-.007-1.3806-.016-1.8937-.024-2.8389.383-3.5442.406-.703 1.225-1.1676 2.86-2.0953.361-.205.763-.4325 1.208-.6902.431-.2495.817-.4771 1.166-.6827 1.642-.9685 2.46-1.4505 3.278-1.4505.813 0 1.62.4767 3.243 1.4345.355.2098.75.4426 1.192.6987.444.2575.844.4849 1.205.6897.142.0811.279.1586.409.233.25-1.3544 1.222-2.4548 2.502-2.8849-.175-.0992-.356-.2023-.546-.3097-.511-.2901-1.078-.6121-1.709-.9767-.62-.3592-1.174-.6865-1.674-.9819-2.311-1.3646-3.466-2.0468-4.622-2.0468z" fill-rule="evenodd"/><path d="m261.599 87.4908c1.557 0 2.819-1.2649 2.819-2.8253 0-1.5603-1.262-2.8252-2.819-2.8252s-2.819 1.2649-2.819 2.8252c0 1.5604 1.262 2.8253 2.819 2.8253z"/></g><path d="m300.469 49.2136 5.389-2.4717-.184-.3489-4.979 2.2839-7.516-18.3908-.389.1388z" fill="#000" opacity=".2"/><path d="m198.706 36.7242-.144.3647 7.983 2.7444.144-.3647z" fill="#000" opacity=".2"/><path d="m198.706 59.264-.144.3647 7.983 2.7444.144-.3647z" fill="#000" opacity=".2"/><path d="m198.706 83.3587-.144.3647 7.983 2.7444.144-.3647z" fill="#000" opacity=".2"/><path d="m202.889 107.46-.181.351 3.887 1.741.18-.351z" fill="#000" opacity=".2"/><path d="m408.012 214.11-72.236-76.915-2.582-49.3912-27.105-42.1629-7.745-18.0699s-18.07 1.807-3.227 36.1397l6.131 18.371c-5.526 11.1096-8.389 23.2103-8.389 35.4593v42.097c0 9.913 50.612 63.906 56.504 72.154l35.102 47.289z" fill="#f6f6f7"/><g filter="url(#a)"><g clip-path="url(#f)"><rect fill="#fff" height="48.8374" rx="4.31572" width="173.93" x="6.07019" y="36"/><path d="m26.8396 44.6404c-12.4232 8.07-20.76944 21.8274-20.76944 21.8274v17.5126h174.24684v-28.8442s-14.17 22.942-24.276 22.942c-12.138 0-26.973-26.936-41.808-26.936-18.232 0-29.401 22.7562-44.7757 22.7562-21.3089 0-27.243-39.2454-42.6177-29.258z" fill="url(#c)"/><path d="m6.07016 66.4678s8.34624-13.7574 20.76944-21.8274c15.3747-9.9874 21.3088 29.258 42.6177 29.258 15.3747 0 26.5437-22.7562 44.7757-22.7562 14.835 0 29.67 26.936 41.808 26.936 10.106 0 24.276-22.942 24.276-22.942" stroke="#41c3d8" stroke-linecap="round" stroke-linejoin="round" stroke-width=".809197"/></g></g><g filter="url(#b)"><g clip-path="url(#g)"><rect fill="#fff" height="48.5764" rx="4.29265" width="173" x="56" y="106"/><path d="m208.657 146.225c12.357-8.026 20.659-21.71 20.659-21.71v31.992h-173.316v-20.721s14.095-22.82 24.1462-22.82c12.0731 0 26.8288 26.792 41.5848 26.792 18.135 0 29.244-22.634 44.536-22.634 21.195 0 27.098 39.035 42.39 29.101z" fill="url(#d)" opacity=".7"/><path d="m229.316 124.515s-8.302 13.684-20.659 21.711c-15.292 9.934-21.195-29.102-42.39-29.102-15.292 0-26.401 22.634-44.536 22.634-14.756 0-29.5118-26.792-41.5848-26.792-10.0512 0-24.1462 22.82-24.1462 22.82" stroke="#5369b9" stroke-linecap="round" stroke-linejoin="round" stroke-width=".804871"/></g></g></svg>